<svg xmlns="http://www.w3.org/2000/svg" xmlns:xlink="http://www.w3.org/1999/xlink" width="1350" zoomAndPan="magnify" viewBox="0 0 1012.5 809.999993" height="1080" preserveAspectRatio="xMidYMid meet" version="1.0"><defs><clipPath id="bc2b77ecf8"><path d="M 457.558594 356.558594 L 554.441406 356.558594 L 554.441406 453.441406 L 457.558594 453.441406 Z M 457.558594 356.558594 " clip-rule="nonzero"/></clipPath><clipPath id="527ffe2a49"><path d="M 506 356.558594 C 479.246094 356.558594 457.558594 378.246094 457.558594 405 C 457.558594 431.753906 479.246094 453.441406 506 453.441406 C 532.753906 453.441406 554.441406 431.753906 554.441406 405 C 554.441406 378.246094 532.753906 356.558594 506 356.558594 Z M 506 356.558594 " clip-rule="nonzero"/></clipPath><clipPath id="314ce14b82"><path d="M 457.558594 356.558594 L 554.261719 356.558594 L 554.261719 453.261719 L 457.558594 453.261719 Z M 457.558594 356.558594 " clip-rule="nonzero"/></clipPath><clipPath id="82b1c37300"><path d="M 505.996094 356.558594 C 479.246094 356.558594 457.558594 378.246094 457.558594 404.996094 C 457.558594 431.75 479.246094 453.4375 505.996094 453.4375 C 532.75 453.4375 554.4375 431.75 554.4375 404.996094 C 554.4375 378.246094 532.75 356.558594 505.996094 356.558594 Z M 505.996094 356.558594 " clip-rule="nonzero"/></clipPath><clipPath id="4566715d41"><path d="M 461.695312 361.722656 L 546.878906 361.722656 L 546.878906 446.90625 L 461.695312 446.90625 Z M 461.695312 361.722656 " clip-rule="nonzero"/></clipPath><clipPath id="420359eda9"><path d="M 504.289062 361.722656 C 480.765625 361.722656 461.695312 380.792969 461.695312 404.316406 C 461.695312 427.839844 480.765625 446.90625 504.289062 446.90625 C 527.8125 446.90625 546.878906 427.839844 546.878906 404.316406 C 546.878906 380.792969 527.8125 361.722656 504.289062 361.722656 Z M 504.289062 361.722656 " clip-rule="nonzero"/></clipPath><clipPath id="96d9982008"><path d="M 461.695312 361.722656 L 546.871094 361.722656 L 546.871094 446.898438 L 461.695312 446.898438 Z M 461.695312 361.722656 " clip-rule="nonzero"/></clipPath><clipPath id="cf4308fa91"><path d="M 504.28125 361.722656 C 480.761719 361.722656 461.695312 380.789062 461.695312 404.308594 C 461.695312 427.832031 480.761719 446.898438 504.28125 446.898438 C 527.804688 446.898438 546.871094 427.832031 546.871094 404.308594 C 546.871094 380.789062 527.804688 361.722656 504.28125 361.722656 Z M 504.28125 361.722656 " clip-rule="nonzero"/></clipPath></defs><g clip-path="url(#bc2b77ecf8)"><g clip-path="url(#527ffe2a49)"><path fill="#eb6a5f" d="M 457.558594 356.558594 L 554.441406 356.558594 L 554.441406 453.441406 L 457.558594 453.441406 Z M 457.558594 356.558594 " fill-opacity="1" fill-rule="nonzero"/></g></g><g clip-path="url(#314ce14b82)"><g clip-path="url(#82b1c37300)"><path stroke-linecap="butt" transform="matrix(0.74963, 0, 0, 0.74963, 457.558114, 356.558016)" fill="none" stroke-linejoin="miter" d="M 64.615869 0.000770167 C 28.931587 0.000770167 0.000639581 28.931718 0.000639581 64.615999 C 0.000639581 100.305491 28.931587 129.236439 64.615869 129.236439 C 100.305361 129.236439 129.236309 100.305491 129.236309 64.615999 C 129.236309 28.931718 100.305361 0.000770167 64.615869 0.000770167 Z M 64.615869 0.000770167 " stroke="#8e3f38" stroke-width="8" stroke-opacity="1" stroke-miterlimit="4"/></g></g><g clip-path="url(#4566715d41)"><g clip-path="url(#420359eda9)"><path fill="#cf5e53" d="M 461.695312 361.722656 L 546.878906 361.722656 L 546.878906 446.90625 L 461.695312 446.90625 Z M 461.695312 361.722656 " fill-opacity="1" fill-rule="nonzero"/></g></g><g clip-path="url(#96d9982008)"><g clip-path="url(#cf4308fa91)"><path stroke-linecap="butt" transform="matrix(0.74963, 0, 0, 0.74963, 461.694583, 361.721471)" fill="none" stroke-linejoin="miter" d="M 56.810265 0.00158093 C 25.435403 0.00158093 0.000972576 25.436011 0.000972576 56.810873 C 0.000972576 88.190947 25.435403 113.625377 56.810265 113.625377 C 88.190338 113.625377 113.624768 88.190947 113.624768 56.810873 C 113.624768 25.436011 88.190338 0.00158093 56.810265 0.00158093 Z M 56.810265 0.00158093 " stroke="#eb6a5f" stroke-width="8" stroke-opacity="1" stroke-miterlimit="4"/></g></g><path stroke-linecap="round" transform="matrix(0.530068, -0.530068, 0.530068, 0.530068, 488.222578, 415.740047)" fill="none" stroke-linejoin="miter" d="M 5.502947 5.499615 L 48.613547 5.499615 " stroke="#ffffff" stroke-width="11" stroke-opacity="1" stroke-miterlimit="4"/><path stroke-linecap="round" transform="matrix(0.530068, 0.530068, -0.530068, 0.530068, 492.861191, 387.058401)" fill="none" stroke-linejoin="miter" d="M 5.499676 5.503102 L 48.61396 5.499417 " stroke="#ffffff" stroke-width="11" stroke-opacity="1" stroke-miterlimit="4"/></svg>