<svg xmlns="http://www.w3.org/2000/svg" xmlns:xlink="http://www.w3.org/1999/xlink" width="1350" zoomAndPan="magnify" viewBox="0 0 1012.5 809.999993" height="1080" preserveAspectRatio="xMidYMid meet" version="1.0"><defs><clipPath id="afcd07096b"><path d="M 188.996094 317.402344 L 823.003906 317.402344 L 823.003906 366.484375 L 188.996094 366.484375 Z M 188.996094 317.402344 " clip-rule="nonzero"/></clipPath><clipPath id="e0efd579a0"><path d="M 188.996094 381.453125 L 823 381.453125 L 823 395.011719 L 188.996094 395.011719 Z M 188.996094 381.453125 " clip-rule="nonzero"/></clipPath><clipPath id="26693985d2"><path d="M 188.996094 403.4375 L 823 403.4375 L 823 410.445312 L 188.996094 410.445312 Z M 188.996094 403.4375 " clip-rule="nonzero"/></clipPath></defs><g clip-path="url(#afcd07096b)"><path fill="#6e32d6" d="M 188.996094 317.402344 L 823.03125 317.402344 L 823.03125 366.484375 L 188.996094 366.484375 Z M 188.996094 317.402344 " fill-opacity="1" fill-rule="nonzero"/></g><g clip-path="url(#e0efd579a0)"><path fill="#6e32d6" d="M 188.996094 381.453125 L 822.996094 381.453125 L 822.996094 395.011719 L 188.996094 395.011719 Z M 188.996094 381.453125 " fill-opacity="1" fill-rule="nonzero"/></g><g clip-path="url(#26693985d2)"><path fill="#6e32d6" d="M 188.996094 403.4375 L 823 403.4375 L 823 410.445312 L 188.996094 410.445312 Z M 188.996094 403.4375 " fill-opacity="1" fill-rule="nonzero"/></g></svg>