<svg xmlns="http://www.w3.org/2000/svg" xmlns:xlink="http://www.w3.org/1999/xlink" width="1920" zoomAndPan="magnify" viewBox="0 0 1440 809.999993" height="1080" preserveAspectRatio="xMidYMid meet" version="1.0"><defs><clipPath id="ed0da7491a"><path d="M 0 48.574219 L 1440 48.574219 L 1440 810 L 0 810 Z M 0 48.574219 " clip-rule="nonzero"/></clipPath><clipPath id="2cb958be9e"><path d="M 24 94.257812 L 238 94.257812 L 238 214 L 24 214 Z M 24 94.257812 " clip-rule="nonzero"/></clipPath><clipPath id="d7e1b4d0ba"><path d="M 71 463.179688 L 284 463.179688 L 284 583 L 71 583 Z M 71 463.179688 " clip-rule="nonzero"/></clipPath><clipPath id="8b31c4b835"><path d="M 578 347.308594 L 792 347.308594 L 792 467 L 578 467 Z M 578 347.308594 " clip-rule="nonzero"/></clipPath><clipPath id="004cf24b0a"><path d="M 870 544.113281 L 1084 544.113281 L 1084 664 L 870 664 Z M 870 544.113281 " clip-rule="nonzero"/></clipPath><clipPath id="2c9781b8e5"><path d="M 952 71.644531 L 1166 71.644531 L 1166 191 L 952 191 Z M 952 71.644531 " clip-rule="nonzero"/></clipPath><clipPath id="c1515f6572"><path d="M 407 605.585938 L 621 605.585938 L 621 725 L 407 725 Z M 407 605.585938 " clip-rule="nonzero"/></clipPath></defs><rect x="-144" width="1728" fill="#ffffff" y="-80.999999" height="971.999992" fill-opacity="1"/><rect x="-144" width="1728" fill="#daf8ff" y="-80.999999" height="971.999992" fill-opacity="1"/><g clip-path="url(#ed0da7491a)"><path fill="#daf8ff" d="M 0 48.574219 L 1439.570312 48.574219 L 1439.570312 810 L 0 810 Z M 0 48.574219 " fill-opacity="1" fill-rule="nonzero"/></g><g clip-path="url(#2cb958be9e)"><path fill="#ffffff" d="M 50.964844 160.769531 C 42.757812 151.488281 42.578125 132.066406 55.214844 125.035156 C 67.851562 118.003906 83.972656 121.839844 96.429688 129.191406 C 96.941406 110.855469 113.671875 94.503906 132.011719 94.40625 C 150.351562 94.308594 167.253906 110.488281 167.960938 128.8125 C 174.632812 122.714844 186.78125 121.769531 195.796875 126.761719 C 204.652344 131.664062 208.828125 139.417969 207.785156 148.214844 C 220.359375 144.386719 240.835938 153.132812 236.859375 172.816406 C 231.496094 199.359375 194.363281 196.078125 194.363281 196.078125 C 194.363281 196.078125 185.367188 210.789062 160.367188 213.074219 C 143.976562 214.574219 126.324219 208.800781 116.53125 199.207031 C 110.667969 205.878906 96.300781 209.597656 75.824219 205.222656 C 66.394531 203.207031 55.746094 195.28125 59.324219 187.328125 C 30.695312 192.5 23.4375 179.351562 24.730469 172.417969 C 27.515625 157.507812 50.964844 160.769531 50.964844 160.769531 Z M 50.964844 160.769531 " fill-opacity="1" fill-rule="nonzero"/></g><path fill="#cbafff" d="M 194.363281 196.074219 C 194.363281 196.074219 185.367188 210.789062 160.367188 213.074219 C 143.976562 214.574219 126.320312 208.800781 116.53125 199.207031 C 110.667969 205.878906 96.300781 209.59375 75.824219 205.222656 C 66.394531 203.207031 55.746094 195.28125 59.324219 187.328125 C 36.558594 191.4375 27.308594 183.96875 25.125 177.25 C 33.082031 185.140625 56.761719 185.328125 68.46875 174.207031 C 68.46875 174.207031 70.875 190.453125 92.128906 190.90625 C 110.816406 191.304688 120.953125 182.160156 120.953125 182.160156 C 120.953125 182.160156 161.261719 217.101562 194.363281 196.074219 Z M 194.363281 196.074219 " fill-opacity="1" fill-rule="nonzero"/><g clip-path="url(#d7e1b4d0ba)"><path fill="#ffffff" d="M 97.582031 529.691406 C 89.375 520.410156 89.195312 500.992188 101.832031 493.957031 C 114.46875 486.925781 130.589844 490.761719 143.046875 498.113281 C 143.558594 479.78125 160.289062 463.425781 178.628906 463.332031 C 196.96875 463.234375 213.871094 479.410156 214.578125 497.738281 C 221.25 491.640625 233.398438 490.695312 242.414062 495.683594 C 251.269531 500.585938 255.445312 508.339844 254.402344 517.136719 C 266.976562 513.308594 287.453125 522.058594 283.476562 541.738281 C 278.113281 568.285156 240.980469 565 240.980469 565 C 240.980469 565 231.984375 579.710938 206.984375 582 C 190.59375 583.496094 172.9375 577.722656 163.148438 568.132812 C 157.285156 574.804688 142.917969 578.519531 122.441406 574.144531 C 113.011719 572.132812 102.363281 564.203125 105.941406 556.253906 C 77.3125 561.421875 70.054688 548.273438 71.347656 541.34375 C 74.132812 526.429688 97.582031 529.691406 97.582031 529.691406 Z M 97.582031 529.691406 " fill-opacity="1" fill-rule="nonzero"/></g><path fill="#cbafff" d="M 240.980469 565 C 240.980469 565 231.984375 579.710938 206.984375 581.996094 C 190.59375 583.496094 172.9375 577.722656 163.148438 568.128906 C 157.28125 574.804688 142.917969 578.519531 122.441406 574.144531 C 113.011719 572.128906 102.363281 564.203125 105.941406 556.253906 C 83.175781 560.363281 73.925781 552.890625 71.742188 546.171875 C 79.699219 554.066406 103.378906 554.253906 115.085938 543.128906 C 115.085938 543.128906 117.492188 559.378906 138.742188 559.832031 C 157.433594 560.226562 167.570312 551.082031 167.570312 551.082031 C 167.570312 551.082031 207.878906 586.023438 240.980469 565 Z M 240.980469 565 " fill-opacity="1" fill-rule="nonzero"/><g clip-path="url(#8b31c4b835)"><path fill="#ffffff" d="M 605.0625 413.820312 C 596.855469 404.542969 596.675781 385.121094 609.3125 378.085938 C 621.949219 371.054688 638.074219 374.890625 650.527344 382.242188 C 651.039062 363.910156 667.769531 347.554688 686.109375 347.460938 C 704.453125 347.363281 721.351562 363.539062 722.058594 381.867188 C 728.730469 375.769531 740.878906 374.824219 749.894531 379.8125 C 758.75 384.714844 762.925781 392.46875 761.882812 401.265625 C 774.457031 397.4375 794.933594 406.1875 790.957031 425.867188 C 785.597656 452.414062 748.464844 449.128906 748.464844 449.128906 C 748.464844 449.128906 739.46875 463.839844 714.46875 466.128906 C 698.078125 467.625 680.421875 461.851562 670.628906 452.261719 C 664.765625 458.933594 650.402344 462.648438 629.921875 458.273438 C 620.492188 456.261719 609.84375 448.335938 613.421875 440.382812 C 584.792969 445.550781 577.535156 432.40625 578.828125 425.472656 C 581.613281 410.558594 605.0625 413.820312 605.0625 413.820312 Z M 605.0625 413.820312 " fill-opacity="1" fill-rule="nonzero"/></g><path fill="#cbafff" d="M 748.460938 449.128906 C 748.460938 449.128906 739.464844 463.839844 714.464844 466.125 C 698.074219 467.625 680.421875 461.851562 670.628906 452.261719 C 664.765625 458.933594 650.402344 462.648438 629.921875 458.273438 C 620.492188 456.257812 609.84375 448.332031 613.421875 440.382812 C 590.660156 444.492188 581.40625 437.019531 579.222656 430.304688 C 587.179688 438.195312 610.859375 438.382812 622.566406 427.261719 C 622.566406 427.261719 624.976562 443.507812 646.226562 443.960938 C 664.914062 444.359375 675.054688 435.210938 675.054688 435.210938 C 675.054688 435.210938 715.359375 470.152344 748.460938 449.128906 Z M 748.460938 449.128906 " fill-opacity="1" fill-rule="nonzero"/><g clip-path="url(#004cf24b0a)"><path fill="#ffffff" d="M 896.902344 610.625 C 888.695312 601.34375 888.515625 581.925781 901.152344 574.890625 C 913.789062 567.859375 929.914062 571.695312 942.367188 579.046875 C 942.878906 560.714844 959.609375 544.359375 977.949219 544.265625 C 996.292969 544.167969 1013.191406 560.34375 1013.898438 578.671875 C 1020.570312 572.574219 1032.71875 571.628906 1041.734375 576.617188 C 1050.589844 581.519531 1054.765625 589.273438 1053.722656 598.070312 C 1066.296875 594.242188 1086.773438 602.992188 1082.796875 622.671875 C 1077.4375 649.21875 1040.304688 645.933594 1040.304688 645.933594 C 1040.304688 645.933594 1031.308594 660.644531 1006.308594 662.933594 C 989.917969 664.429688 972.261719 658.65625 962.46875 649.066406 C 956.605469 655.738281 942.242188 659.453125 921.765625 655.078125 C 912.332031 653.066406 901.683594 645.140625 905.261719 637.1875 C 876.632812 642.355469 869.375 629.210938 870.671875 622.277344 C 873.453125 607.363281 896.902344 610.625 896.902344 610.625 Z M 896.902344 610.625 " fill-opacity="1" fill-rule="nonzero"/></g><path fill="#cbafff" d="M 1040.300781 645.933594 C 1040.300781 645.933594 1031.304688 660.644531 1006.304688 662.929688 C 989.914062 664.429688 972.261719 658.65625 962.46875 649.066406 C 956.605469 655.738281 942.242188 659.453125 921.761719 655.078125 C 912.332031 653.0625 901.683594 645.136719 905.261719 637.1875 C 882.5 641.296875 873.246094 633.824219 871.0625 627.105469 C 879.019531 635 902.699219 635.1875 914.40625 624.066406 C 914.40625 624.066406 916.816406 640.3125 938.066406 640.765625 C 956.753906 641.160156 966.894531 632.015625 966.894531 632.015625 C 966.894531 632.015625 1007.203125 666.957031 1040.300781 645.933594 Z M 1040.300781 645.933594 " fill-opacity="1" fill-rule="nonzero"/><g clip-path="url(#2c9781b8e5)"><path fill="#ffffff" d="M 978.816406 138.15625 C 970.609375 128.875 970.429688 109.453125 983.066406 102.421875 C 995.703125 95.390625 1011.824219 99.226562 1024.28125 106.574219 C 1024.792969 88.242188 1041.523438 71.890625 1059.863281 71.792969 C 1078.203125 71.695312 1095.105469 87.871094 1095.8125 106.199219 C 1102.484375 100.101562 1114.632812 99.15625 1123.648438 104.148438 C 1132.503906 109.050781 1136.679688 116.800781 1135.636719 125.601562 C 1148.210938 121.773438 1168.6875 130.519531 1164.710938 150.203125 C 1159.347656 176.746094 1122.214844 173.464844 1122.214844 173.464844 C 1122.214844 173.464844 1113.21875 188.175781 1088.21875 190.460938 C 1071.828125 191.960938 1054.175781 186.1875 1044.382812 176.59375 C 1038.519531 183.265625 1024.15625 186.980469 1003.675781 182.609375 C 994.246094 180.59375 983.597656 172.667969 987.175781 164.714844 C 958.546875 169.886719 951.289062 156.738281 952.582031 149.804688 C 955.367188 134.894531 978.816406 138.15625 978.816406 138.15625 Z M 978.816406 138.15625 " fill-opacity="1" fill-rule="nonzero"/></g><path fill="#cbafff" d="M 1122.214844 173.460938 C 1122.214844 173.460938 1113.21875 188.175781 1088.21875 190.460938 C 1071.828125 191.960938 1054.175781 186.1875 1044.382812 176.59375 C 1038.519531 183.265625 1024.152344 186.980469 1003.675781 182.609375 C 994.246094 180.59375 983.597656 172.667969 987.175781 164.714844 C 964.410156 168.824219 955.160156 161.355469 952.976562 154.636719 C 960.933594 162.527344 984.613281 162.714844 996.320312 151.59375 C 996.320312 151.59375 998.726562 167.839844 1019.980469 168.292969 C 1038.667969 168.691406 1048.804688 159.546875 1048.804688 159.546875 C 1048.804688 159.546875 1089.113281 194.488281 1122.214844 173.460938 Z M 1122.214844 173.460938 " fill-opacity="1" fill-rule="nonzero"/><g clip-path="url(#c1515f6572)"><path fill="#ffffff" d="M 434.363281 672.09375 C 426.160156 662.816406 425.980469 643.394531 438.617188 636.363281 C 451.25 629.328125 467.375 633.164062 479.828125 640.515625 C 480.34375 622.183594 497.074219 605.828125 515.414062 605.734375 C 533.753906 605.636719 550.652344 621.8125 551.359375 640.140625 C 558.03125 634.042969 570.183594 633.097656 579.199219 638.085938 C 588.054688 642.988281 592.226562 650.742188 591.183594 659.539062 C 603.757812 655.710938 624.234375 664.460938 620.261719 684.144531 C 614.898438 710.6875 577.765625 707.402344 577.765625 707.402344 C 577.765625 707.402344 568.769531 722.113281 543.769531 724.402344 C 527.378906 725.902344 509.722656 720.125 499.929688 710.535156 C 494.066406 717.207031 479.703125 720.921875 459.226562 716.546875 C 449.792969 714.535156 439.144531 706.609375 442.722656 698.65625 C 414.097656 703.824219 406.835938 690.679688 408.132812 683.746094 C 410.914062 668.832031 434.363281 672.09375 434.363281 672.09375 Z M 434.363281 672.09375 " fill-opacity="1" fill-rule="nonzero"/></g><path fill="#cbafff" d="M 577.765625 707.402344 C 577.765625 707.402344 568.769531 722.113281 543.769531 724.402344 C 527.378906 725.898438 509.722656 720.125 499.929688 710.535156 C 494.066406 717.207031 479.703125 720.921875 459.226562 716.546875 C 449.792969 714.53125 439.144531 706.605469 442.722656 698.65625 C 419.960938 702.765625 410.707031 695.296875 408.523438 688.578125 C 416.480469 696.46875 440.160156 696.65625 451.871094 685.535156 C 451.871094 685.535156 454.277344 701.78125 475.527344 702.234375 C 494.214844 702.632812 504.355469 693.484375 504.355469 693.484375 C 504.355469 693.484375 544.664062 728.425781 577.765625 707.402344 Z M 577.765625 707.402344 " fill-opacity="1" fill-rule="nonzero"/><path fill="#ffffff" d="M 314.996094 336.5 C 306.789062 327.21875 306.609375 307.800781 319.246094 300.765625 C 331.882812 293.734375 348.003906 297.570312 360.460938 304.921875 C 360.972656 286.589844 377.703125 270.234375 396.042969 270.136719 C 414.382812 270.042969 431.285156 286.21875 431.992188 304.546875 C 438.664062 298.449219 450.8125 297.503906 459.828125 302.492188 C 468.683594 307.394531 472.859375 315.148438 471.816406 323.945312 C 484.390625 320.117188 504.867188 328.867188 500.890625 348.546875 C 495.527344 375.09375 458.394531 371.808594 458.394531 371.808594 C 458.394531 371.808594 449.398438 386.519531 424.398438 388.804688 C 408.007812 390.304688 390.355469 384.53125 380.5625 374.941406 C 374.699219 381.613281 360.332031 385.328125 339.855469 380.953125 C 330.425781 378.9375 319.777344 371.011719 323.355469 363.0625 C 294.726562 368.230469 287.46875 355.082031 288.761719 348.152344 C 291.546875 333.238281 314.996094 336.5 314.996094 336.5 Z M 314.996094 336.5 " fill-opacity="1" fill-rule="nonzero"/><path fill="#cbafff" d="M 458.394531 371.808594 C 458.394531 371.808594 449.398438 386.519531 424.398438 388.804688 C 408.007812 390.304688 390.351562 384.53125 380.5625 374.9375 C 374.699219 381.613281 360.332031 385.328125 339.855469 380.953125 C 330.425781 378.9375 319.777344 371.011719 323.355469 363.058594 C 300.589844 367.171875 291.339844 359.699219 289.15625 352.980469 C 297.113281 360.875 320.792969 361.0625 332.5 349.9375 C 332.5 349.9375 334.90625 366.1875 356.160156 366.640625 C 374.847656 367.035156 384.984375 357.890625 384.984375 357.890625 C 384.984375 357.890625 425.292969 392.832031 458.394531 371.808594 Z M 458.394531 371.808594 " fill-opacity="1" fill-rule="nonzero"/><path fill="#ffffff" d="M 1176.523438 309.484375 C 1168.316406 300.207031 1168.136719 280.785156 1180.773438 273.753906 C 1193.410156 266.71875 1209.53125 270.554688 1221.984375 277.90625 C 1222.5 259.574219 1239.230469 243.21875 1257.570312 243.125 C 1275.910156 243.027344 1292.8125 259.203125 1293.515625 277.53125 C 1300.191406 271.433594 1312.339844 270.488281 1321.355469 275.476562 C 1330.210938 280.378906 1334.386719 288.132812 1333.339844 296.929688 C 1345.917969 293.101562 1366.394531 301.851562 1362.417969 321.535156 C 1357.054688 348.078125 1319.921875 344.792969 1319.921875 344.792969 C 1319.921875 344.792969 1310.925781 359.503906 1285.925781 361.792969 C 1269.535156 363.289062 1251.878906 357.515625 1242.089844 347.925781 C 1236.222656 354.597656 1221.859375 358.3125 1201.382812 353.9375 C 1191.953125 351.925781 1181.304688 344 1184.882812 336.046875 C 1156.253906 341.214844 1148.996094 328.070312 1150.289062 321.136719 C 1153.070312 306.222656 1176.523438 309.484375 1176.523438 309.484375 Z M 1176.523438 309.484375 " fill-opacity="1" fill-rule="nonzero"/><path fill="#cbafff" d="M 1319.921875 344.792969 C 1319.921875 344.792969 1310.925781 359.503906 1285.925781 361.792969 C 1269.535156 363.289062 1251.878906 357.515625 1242.089844 347.925781 C 1236.222656 354.597656 1221.859375 358.3125 1201.382812 353.9375 C 1191.953125 351.921875 1181.304688 343.996094 1184.882812 336.046875 C 1162.117188 340.15625 1152.867188 332.683594 1150.679688 325.96875 C 1158.640625 333.859375 1182.320312 334.046875 1194.027344 322.925781 C 1194.027344 322.925781 1196.433594 339.171875 1217.683594 339.625 C 1236.371094 340.023438 1246.511719 330.875 1246.511719 330.875 C 1246.511719 330.875 1286.820312 365.816406 1319.921875 344.792969 Z M 1319.921875 344.792969 " fill-opacity="1" fill-rule="nonzero"/></svg>